<svg width="15" height="15" viewBox="0 0 15 15" fill="none" xmlns="http://www.w3.org/2000/svg">
<path d="M12.5724 3.68808C12.5216 3.62071 12.4674 3.55604 12.4099 3.49433C12.4677 3.34023 12.5117 3.18126 12.5411 3.01933C12.6282 2.42695 12.5526 1.82204 12.3224 1.26933C12.3224 1.26933 11.6224 1.05058 10.0161 2.13183C9.33422 1.94354 8.62984 1.84892 7.9224 1.85058C7.21293 1.84933 6.50654 1.94394 5.8224 2.13183C4.21615 1.03808 3.51615 1.26933 3.51615 1.26933C3.2887 1.81619 3.21312 2.41432 3.2974 3.00058C3.32705 3.16924 3.37311 3.33461 3.4349 3.49433C3.37865 3.55683 3.3224 3.62558 3.2724 3.68808C2.80601 4.27309 2.55844 5.00254 2.5724 5.75058C2.57091 5.92799 2.57926 6.10534 2.5974 6.28183C2.7974 9.05058 4.64115 9.69433 6.3974 9.89433C6.14882 10.1255 5.98027 10.4297 5.91615 10.7631C5.85806 10.9854 5.83072 11.2146 5.8349 11.4443V12.2631C5.13552 12.3256 4.41802 12.2237 4.19552 11.5999C3.95668 11.0029 3.56057 10.4818 3.04927 10.0918C3.0119 10.0716 2.97635 10.0482 2.94302 10.0218C2.89813 9.90383 2.81858 9.80218 2.71484 9.73023C2.6111 9.65828 2.48802 9.6194 2.36177 9.6187H2.35865C2.19343 9.6187 2.03493 9.68412 1.91781 9.80065C1.80069 9.91719 1.73447 10.0754 1.73365 10.2406C1.73177 10.7481 2.2399 11.0762 2.44802 11.1875C2.69118 11.4325 2.88678 11.7205 3.0249 12.0368C3.2524 12.6762 3.91802 13.6481 5.81615 13.5218L5.8174 13.5831L5.8199 13.7506C5.8199 13.9163 5.88575 14.0753 6.00296 14.1925C6.12017 14.3097 6.27914 14.3756 6.4449 14.3756H9.39115C9.55691 14.3756 9.71588 14.3097 9.83309 14.1925C9.9503 14.0753 10.0161 13.9163 10.0161 13.7506C10.0161 13.7506 10.0211 11.7756 10.0211 11.4443C10.0253 11.2146 9.99797 10.9854 9.9399 10.7631L9.93865 10.7593L9.94115 10.7631C9.93552 10.7412 9.9274 10.7237 9.92115 10.7025C9.85151 10.3928 9.69037 10.1112 9.45865 9.89433L9.46615 9.90745L9.45365 9.89495C11.2099 9.69495 13.0411 9.0387 13.2411 6.28245C13.2593 6.10596 13.2676 5.92861 13.2661 5.7512C13.2772 5.00465 13.0324 4.27617 12.5724 3.68808Z" fill="white"/>
</svg>
