<svg width="15" height="15" viewBox="0 0 15 15" fill="none" xmlns="http://www.w3.org/2000/svg">
<g clip-path="url(#clip0_50_12)">
<path d="M5.01261 7.5C5.01261 6.11935 6.13155 4.9998 7.51221 4.9998C8.89286 4.9998 10.0124 6.11935 10.0124 7.5C10.0124 8.88065 8.89286 10.0002 7.51221 10.0002C6.13155 10.0002 5.01261 8.88065 5.01261 7.5ZM3.66104 7.5C3.66104 9.62702 5.38519 11.3512 7.51221 11.3512C9.63923 11.3512 11.3634 9.62702 11.3634 7.5C11.3634 5.37298 9.63923 3.64883 7.51221 3.64883C5.38519 3.64883 3.66104 5.37298 3.66104 7.5ZM10.6158 3.49616C10.6158 3.99293 11.0187 4.39641 11.516 4.39641C12.0128 4.39641 12.4163 3.99293 12.4163 3.49616C12.4163 2.99939 12.0134 2.59653 11.516 2.59653C11.0187 2.59653 10.6158 2.99939 10.6158 3.49616ZM4.48192 13.6048C3.7507 13.5715 3.35328 13.4497 3.08915 13.3467C2.73898 13.2104 2.48939 13.0481 2.22646 12.7857C1.96415 12.5234 1.80118 12.2738 1.66548 11.9237C1.56249 11.6595 1.44072 11.2621 1.4074 10.5309C1.37105 9.74031 1.36378 9.50283 1.36378 7.5C1.36378 5.49717 1.37166 5.2603 1.4074 4.4691C1.44072 3.73788 1.5631 3.34107 1.66548 3.07633C1.80179 2.72617 1.96415 2.47658 2.22646 2.21365C2.48878 1.95133 2.73838 1.78837 3.08915 1.65267C3.35328 1.54968 3.7507 1.42791 4.48192 1.39459C5.27251 1.35824 5.50999 1.35097 7.51221 1.35097C9.51503 1.35097 9.75191 1.35884 10.5431 1.39459C11.2743 1.42791 11.6711 1.55028 11.9359 1.65267C12.286 1.78837 12.5356 1.95133 12.7986 2.21365C13.0609 2.47597 13.2232 2.72617 13.3595 3.07633C13.4625 3.34047 13.5843 3.73788 13.6176 4.4691C13.654 5.2603 13.6612 5.49717 13.6612 7.5C13.6612 9.50222 13.654 9.7397 13.6176 10.5309C13.5843 11.2621 13.4619 11.6595 13.3595 11.9237C13.2232 12.2738 13.0609 12.5234 12.7986 12.7857C12.5362 13.0481 12.286 13.2104 11.9359 13.3467C11.6717 13.4497 11.2743 13.5715 10.5431 13.6048C9.75251 13.6412 9.51503 13.6484 7.51221 13.6484C5.50999 13.6484 5.27251 13.6412 4.48192 13.6048ZM4.42012 0.0454362C3.62166 0.0817851 3.07642 0.208401 2.59965 0.39378C2.10651 0.585218 1.6885 0.842084 1.27109 1.25889C0.854291 1.67569 0.597425 2.0937 0.405987 2.58744C0.220608 3.06422 0.0939922 3.60945 0.0576432 4.40792C0.0206885 5.20759 0.012207 5.46325 0.012207 7.5C0.012207 9.53675 0.0206885 9.79241 0.0576432 10.5921C0.0939922 11.3905 0.220608 11.9358 0.405987 12.4126C0.597425 12.9057 0.853685 13.3243 1.27109 13.7411C1.68789 14.1579 2.10591 14.4142 2.59965 14.6062C3.07703 14.7916 3.62166 14.9182 4.42012 14.9546C5.22041 14.9909 5.47545 15 7.51221 15C9.54957 15 9.80461 14.9915 10.6043 14.9546C11.4028 14.9182 11.948 14.7916 12.4248 14.6062C12.9179 14.4142 13.3359 14.1579 13.7533 13.7411C14.1701 13.3243 14.4264 12.9057 14.6184 12.4126C14.8038 11.9358 14.931 11.3905 14.9668 10.5921C15.0031 9.7918 15.0116 9.53675 15.0116 7.5C15.0116 5.46325 15.0031 5.20759 14.9668 4.40792C14.9304 3.60945 14.8038 3.06422 14.6184 2.58744C14.4264 2.09431 14.1701 1.67629 13.7533 1.25889C13.3365 0.842084 12.9179 0.585218 12.4254 0.39378C11.948 0.208401 11.4028 0.0811793 10.6049 0.0454362C9.80522 0.00908724 9.54957 0 7.51281 0C5.47545 0 5.22041 0.00848142 4.42012 0.0454362Z" fill="white"/>
</g>
<defs>
<clipPath id="clip0_50_12">
<rect width="15" height="15" fill="white"/>
</clipPath>
</defs>
</svg>
