<svg width="15" height="14" viewBox="0 0 15 14" fill="none" xmlns="http://www.w3.org/2000/svg">
<g clip-path="url(#clip0_50_10)">
<path d="M0 1.62626C0 1.15487 0.164988 0.765984 0.494949 0.459596C0.824911 0.153194 1.25388 0 1.78182 0C2.30034 0 2.71986 0.150832 3.0404 0.452525C3.37037 0.763636 3.53535 1.16901 3.53535 1.66869C3.53535 2.12121 3.37509 2.49831 3.05455 2.8C2.72458 3.11111 2.29091 3.26667 1.75354 3.26667H1.73939C1.22087 3.26667 0.801352 3.11111 0.480808 2.8C0.160265 2.48889 0 2.09764 0 1.62626ZM0.183838 14V4.55354H3.32323V14H0.183838ZM5.06263 14H8.20202V8.72525C8.20202 8.39528 8.23974 8.14073 8.31515 7.96162C8.44713 7.64107 8.64748 7.37002 8.91616 7.14848C9.18485 6.92693 9.52188 6.81616 9.92727 6.81616C10.9832 6.81616 11.5111 7.52794 11.5111 8.95152V14H14.6505V8.58384C14.6505 7.18855 14.3205 6.1303 13.6606 5.40909C13.0007 4.68788 12.1286 4.32727 11.0444 4.32727C9.82828 4.32727 8.88081 4.8505 8.20202 5.89697V5.92525H8.18788L8.20202 5.89697V4.55354H5.06263C5.08148 4.85521 5.09091 5.79326 5.09091 7.36768C5.09091 8.94208 5.08148 11.1529 5.06263 14Z" fill="white"/>
</g>
<defs>
<clipPath id="clip0_50_10">
<rect width="14.6505" height="14" fill="white"/>
</clipPath>
</defs>
</svg>
